<mxfile host="app.diagrams.net" modified="2024-06-21T12:09:59.585Z" agent="Mozilla/5.0 (Macintosh; Intel Mac OS X 10.15; rv:128.0) Gecko/20100101 Firefox/128.0" etag="RWajlO4ue0u1cWqk-XaQ" scale="1" border="0" version="24.6.0" type="device">
  <diagram name="Page-1" id="efa7a0a1-bf9b-a30e-e6df-94a7791c09e9">
    <mxGraphModel dx="1316" dy="627" grid="1" gridSize="10" guides="1" tooltips="1" connect="1" arrows="1" fold="1" page="1" pageScale="1" pageWidth="740" pageHeight="500" background="#FFFFFF" math="0" shadow="0">
      <root>
        <mxCell id="0" />
        <mxCell id="1" parent="0" />
        <mxCell id="SMRF5WXn3iM__mVZ10Ur-87" value="" style="rounded=1;arcSize=3;perimeterSpacing=20;strokeColor=none;html=1;whiteSpace=wrap;verticalAlign=middle;movable=1;resizable=1;rotatable=1;deletable=1;editable=1;locked=0;connectable=1;" parent="1" vertex="1">
          <mxGeometry x="20" y="10" width="760" height="570" as="geometry" />
        </mxCell>
        <mxCell id="SMRF5WXn3iM__mVZ10Ur-6" value="" style="rounded=1;arcSize=3;perimeterSpacing=20;html=1;whiteSpace=wrap;verticalAlign=middle;" parent="1" vertex="1">
          <mxGeometry x="50" y="116" width="320" height="420" as="geometry" />
        </mxCell>
        <mxCell id="oMBeN4IvPGKr6_LYo95F-5" value="image" style="text;align=center;verticalAlign=middle;rounded=1;spacing=4;spacingLeft=0;spacingTop=0;fillColor=#fff2cc;strokeColor=#d6b656;arcSize=3;shadow=0;shadowOffsetX=2;shadowOffsetY=2;shadowBlur=1;strokeWidth=1;perimeterSpacing=0;html=1;whiteSpace=wrap;" parent="1" vertex="1">
          <mxGeometry x="220" y="176" width="140" height="70" as="geometry" />
        </mxCell>
        <mxCell id="SMRF5WXn3iM__mVZ10Ur-7" value="&lt;div&gt;Canvas with font and&lt;/div&gt;&lt;div&gt;image from domain-b.com&lt;/div&gt;" style="text;align=center;verticalAlign=middle;rounded=1;spacing=4;spacingLeft=0;spacingTop=0;fillColor=#f8cecc;strokeColor=#b85450;arcSize=3;shadow=0;shadowOffsetX=2;shadowOffsetY=2;shadowBlur=1;strokeWidth=1;perimeterSpacing=0;html=1;whiteSpace=wrap;" parent="1" vertex="1">
          <mxGeometry x="70" y="396" width="290" height="80" as="geometry" />
        </mxCell>
        <mxCell id="SMRF5WXn3iM__mVZ10Ur-13" value="" style="text;align=center;verticalAlign=middle;rounded=1;spacing=4;spacingLeft=0;spacingTop=0;fillColor=#CCCCCC;strokeColor=none;arcSize=36;shadow=0;shadowOffsetX=2;shadowOffsetY=2;shadowBlur=1;strokeWidth=1;perimeterSpacing=0;html=1;whiteSpace=wrap;" parent="1" vertex="1">
          <mxGeometry x="70" y="496" width="70" height="10" as="geometry" />
        </mxCell>
        <mxCell id="SMRF5WXn3iM__mVZ10Ur-14" value="" style="text;align=center;verticalAlign=middle;rounded=1;spacing=4;spacingLeft=0;spacingTop=0;fillColor=#CCCCCC;strokeColor=none;arcSize=36;shadow=0;shadowOffsetX=2;shadowOffsetY=2;shadowBlur=1;strokeWidth=1;perimeterSpacing=0;html=1;whiteSpace=wrap;" parent="1" vertex="1">
          <mxGeometry x="150" y="496" width="200" height="10" as="geometry" />
        </mxCell>
        <mxCell id="SMRF5WXn3iM__mVZ10Ur-17" value="" style="text;align=center;verticalAlign=middle;rounded=1;spacing=4;spacingLeft=0;spacingTop=0;fillColor=#CCCCCC;strokeColor=none;arcSize=36;shadow=0;shadowOffsetX=2;shadowOffsetY=2;shadowBlur=1;strokeWidth=1;perimeterSpacing=0;html=1;whiteSpace=wrap;" parent="1" vertex="1">
          <mxGeometry x="70" y="176" width="140" height="10" as="geometry" />
        </mxCell>
        <mxCell id="SMRF5WXn3iM__mVZ10Ur-18" value="" style="text;align=center;verticalAlign=middle;rounded=1;spacing=4;spacingLeft=0;spacingTop=0;fillColor=#CCCCCC;strokeColor=none;arcSize=36;shadow=0;shadowOffsetX=2;shadowOffsetY=2;shadowBlur=1;strokeWidth=1;perimeterSpacing=0;html=1;whiteSpace=wrap;" parent="1" vertex="1">
          <mxGeometry x="70" y="196" width="130" height="10" as="geometry" />
        </mxCell>
        <mxCell id="SMRF5WXn3iM__mVZ10Ur-19" value="" style="text;align=center;verticalAlign=middle;rounded=1;spacing=4;spacingLeft=0;spacingTop=0;fillColor=#CCCCCC;strokeColor=none;arcSize=36;shadow=0;shadowOffsetX=2;shadowOffsetY=2;shadowBlur=1;strokeWidth=1;perimeterSpacing=0;html=1;whiteSpace=wrap;" parent="1" vertex="1">
          <mxGeometry x="70" y="216" width="40" height="10" as="geometry" />
        </mxCell>
        <mxCell id="SMRF5WXn3iM__mVZ10Ur-20" value="" style="text;align=center;verticalAlign=middle;rounded=1;spacing=4;spacingLeft=0;spacingTop=0;fillColor=#CCCCCC;strokeColor=none;arcSize=36;shadow=0;shadowOffsetX=2;shadowOffsetY=2;shadowBlur=1;strokeWidth=1;perimeterSpacing=0;html=1;whiteSpace=wrap;" parent="1" vertex="1">
          <mxGeometry x="120" y="216" width="90" height="10" as="geometry" />
        </mxCell>
        <mxCell id="SMRF5WXn3iM__mVZ10Ur-21" value="" style="text;align=center;verticalAlign=middle;rounded=1;spacing=4;spacingLeft=0;spacingTop=0;fillColor=#CCCCCC;strokeColor=none;arcSize=36;shadow=0;shadowOffsetX=2;shadowOffsetY=2;shadowBlur=1;strokeWidth=1;perimeterSpacing=0;html=1;whiteSpace=wrap;" parent="1" vertex="1">
          <mxGeometry x="70" y="268" width="90" height="10" as="geometry" />
        </mxCell>
        <mxCell id="SMRF5WXn3iM__mVZ10Ur-22" value="" style="text;align=center;verticalAlign=middle;rounded=1;spacing=4;spacingLeft=0;spacingTop=0;fillColor=#CCCCCC;strokeColor=none;arcSize=36;shadow=0;shadowOffsetX=2;shadowOffsetY=2;shadowBlur=1;strokeWidth=1;perimeterSpacing=0;html=1;whiteSpace=wrap;" parent="1" vertex="1">
          <mxGeometry x="70" y="308" width="90" height="10" as="geometry" />
        </mxCell>
        <mxCell id="SMRF5WXn3iM__mVZ10Ur-23" value="" style="text;align=center;verticalAlign=middle;rounded=1;spacing=4;spacingLeft=0;spacingTop=0;fillColor=#CCCCCC;strokeColor=none;arcSize=36;shadow=0;shadowOffsetX=2;shadowOffsetY=2;shadowBlur=1;strokeWidth=1;perimeterSpacing=0;html=1;whiteSpace=wrap;" parent="1" vertex="1">
          <mxGeometry x="70" y="348" width="90" height="10" as="geometry" />
        </mxCell>
        <mxCell id="SMRF5WXn3iM__mVZ10Ur-24" value="" style="text;align=center;verticalAlign=middle;rounded=1;spacing=4;spacingLeft=0;spacingTop=0;fillColor=#CCCCCC;strokeColor=none;arcSize=36;shadow=0;shadowOffsetX=2;shadowOffsetY=2;shadowBlur=1;strokeWidth=1;perimeterSpacing=0;html=1;whiteSpace=wrap;" parent="1" vertex="1">
          <mxGeometry x="165" y="348" width="90" height="10" as="geometry" />
        </mxCell>
        <mxCell id="SMRF5WXn3iM__mVZ10Ur-25" value="" style="text;align=center;verticalAlign=middle;rounded=1;spacing=4;spacingLeft=0;spacingTop=0;fillColor=#CCCCCC;strokeColor=none;arcSize=36;shadow=0;shadowOffsetX=2;shadowOffsetY=2;shadowBlur=1;strokeWidth=1;perimeterSpacing=0;html=1;whiteSpace=wrap;" parent="1" vertex="1">
          <mxGeometry x="70" y="368" width="90" height="10" as="geometry" />
        </mxCell>
        <mxCell id="SMRF5WXn3iM__mVZ10Ur-26" value="" style="text;align=center;verticalAlign=middle;rounded=1;spacing=4;spacingLeft=0;spacingTop=0;fillColor=#CCCCCC;strokeColor=none;arcSize=36;shadow=0;shadowOffsetX=2;shadowOffsetY=2;shadowBlur=1;strokeWidth=1;perimeterSpacing=0;html=1;whiteSpace=wrap;" parent="1" vertex="1">
          <mxGeometry x="170" y="368" width="90" height="10" as="geometry" />
        </mxCell>
        <mxCell id="SMRF5WXn3iM__mVZ10Ur-27" value="" style="text;align=center;verticalAlign=middle;rounded=1;spacing=4;spacingLeft=0;spacingTop=0;fillColor=#CCCCCC;strokeColor=none;arcSize=36;shadow=0;shadowOffsetX=2;shadowOffsetY=2;shadowBlur=1;strokeWidth=1;perimeterSpacing=0;html=1;whiteSpace=wrap;" parent="1" vertex="1">
          <mxGeometry x="165" y="308" width="120" height="10" as="geometry" />
        </mxCell>
        <mxCell id="SMRF5WXn3iM__mVZ10Ur-28" value="" style="text;align=center;verticalAlign=middle;rounded=1;spacing=4;spacingLeft=0;spacingTop=0;fillColor=#CCCCCC;strokeColor=none;arcSize=36;shadow=0;shadowOffsetX=2;shadowOffsetY=2;shadowBlur=1;strokeWidth=1;perimeterSpacing=0;html=1;whiteSpace=wrap;" parent="1" vertex="1">
          <mxGeometry x="70" y="328" width="120" height="10" as="geometry" />
        </mxCell>
        <mxCell id="SMRF5WXn3iM__mVZ10Ur-29" value="" style="text;align=center;verticalAlign=middle;rounded=1;spacing=4;spacingLeft=0;spacingTop=0;fillColor=#CCCCCC;strokeColor=none;arcSize=36;shadow=0;shadowOffsetX=2;shadowOffsetY=2;shadowBlur=1;strokeWidth=1;perimeterSpacing=0;html=1;whiteSpace=wrap;" parent="1" vertex="1">
          <mxGeometry x="165" y="268" width="120" height="10" as="geometry" />
        </mxCell>
        <mxCell id="SMRF5WXn3iM__mVZ10Ur-30" value="" style="text;align=center;verticalAlign=middle;rounded=1;spacing=4;spacingLeft=0;spacingTop=0;fillColor=#CCCCCC;strokeColor=none;arcSize=36;shadow=0;shadowOffsetX=2;shadowOffsetY=2;shadowBlur=1;strokeWidth=1;perimeterSpacing=0;html=1;whiteSpace=wrap;" parent="1" vertex="1">
          <mxGeometry x="70" y="288" width="120" height="10" as="geometry" />
        </mxCell>
        <mxCell id="SMRF5WXn3iM__mVZ10Ur-31" value="" style="text;align=center;verticalAlign=middle;rounded=1;spacing=4;spacingLeft=0;spacingTop=0;fillColor=#CCCCCC;strokeColor=none;arcSize=36;shadow=0;shadowOffsetX=2;shadowOffsetY=2;shadowBlur=1;strokeWidth=1;perimeterSpacing=0;html=1;whiteSpace=wrap;" parent="1" vertex="1">
          <mxGeometry x="260" y="348" width="80" height="10" as="geometry" />
        </mxCell>
        <mxCell id="SMRF5WXn3iM__mVZ10Ur-32" value="" style="text;align=center;verticalAlign=middle;rounded=1;spacing=4;spacingLeft=0;spacingTop=0;fillColor=#CCCCCC;strokeColor=none;arcSize=36;shadow=0;shadowOffsetX=2;shadowOffsetY=2;shadowBlur=1;strokeWidth=1;perimeterSpacing=0;html=1;whiteSpace=wrap;" parent="1" vertex="1">
          <mxGeometry x="200" y="328" width="120" height="10" as="geometry" />
        </mxCell>
        <mxCell id="SMRF5WXn3iM__mVZ10Ur-36" value="" style="text;align=center;verticalAlign=middle;rounded=1;spacing=4;spacingLeft=0;spacingTop=0;fillColor=#CCCCCC;strokeColor=none;arcSize=36;shadow=0;shadowOffsetX=2;shadowOffsetY=2;shadowBlur=1;strokeWidth=1;perimeterSpacing=0;html=1;whiteSpace=wrap;" parent="1" vertex="1">
          <mxGeometry x="200" y="288" width="40" height="10" as="geometry" />
        </mxCell>
        <mxCell id="SMRF5WXn3iM__mVZ10Ur-37" value="" style="text;align=center;verticalAlign=middle;rounded=1;spacing=4;spacingLeft=0;spacingTop=0;fillColor=#CCCCCC;strokeColor=none;arcSize=36;shadow=0;shadowOffsetX=2;shadowOffsetY=2;shadowBlur=1;strokeWidth=1;perimeterSpacing=0;html=1;whiteSpace=wrap;" parent="1" vertex="1">
          <mxGeometry x="270" y="368" width="40" height="10" as="geometry" />
        </mxCell>
        <mxCell id="SMRF5WXn3iM__mVZ10Ur-39" value="" style="text;align=center;verticalAlign=middle;rounded=1;spacing=4;spacingLeft=0;spacingTop=0;fillColor=#CCCCCC;strokeColor=none;arcSize=36;shadow=0;shadowOffsetX=2;shadowOffsetY=2;shadowBlur=1;strokeWidth=1;perimeterSpacing=0;html=1;whiteSpace=wrap;" parent="1" vertex="1">
          <mxGeometry x="300" y="308" width="40" height="10" as="geometry" />
        </mxCell>
        <mxCell id="SMRF5WXn3iM__mVZ10Ur-40" value="" style="text;align=center;verticalAlign=middle;rounded=1;spacing=4;spacingLeft=0;spacingTop=0;fillColor=#CCCCCC;strokeColor=none;arcSize=36;shadow=0;shadowOffsetX=2;shadowOffsetY=2;shadowBlur=1;strokeWidth=1;perimeterSpacing=0;html=1;whiteSpace=wrap;" parent="1" vertex="1">
          <mxGeometry x="250" y="288" width="90" height="10" as="geometry" />
        </mxCell>
        <mxCell id="SMRF5WXn3iM__mVZ10Ur-42" value="" style="text;align=center;verticalAlign=middle;rounded=1;spacing=4;spacingLeft=0;spacingTop=0;fillColor=#CCCCCC;strokeColor=none;arcSize=36;shadow=0;shadowOffsetX=2;shadowOffsetY=2;shadowBlur=1;strokeWidth=1;perimeterSpacing=0;html=1;whiteSpace=wrap;" parent="1" vertex="1">
          <mxGeometry x="70" y="516" width="50" height="10" as="geometry" />
        </mxCell>
        <mxCell id="SMRF5WXn3iM__mVZ10Ur-43" value="" style="text;align=center;verticalAlign=middle;rounded=1;spacing=4;spacingLeft=0;spacingTop=0;fillColor=#CCCCCC;strokeColor=none;arcSize=36;shadow=0;shadowOffsetX=2;shadowOffsetY=2;shadowBlur=1;strokeWidth=1;perimeterSpacing=0;html=1;whiteSpace=wrap;" parent="1" vertex="1">
          <mxGeometry x="150" y="516" width="40" height="10" as="geometry" />
        </mxCell>
        <mxCell id="SMRF5WXn3iM__mVZ10Ur-44" value="" style="text;align=center;verticalAlign=middle;rounded=1;spacing=4;spacingLeft=0;spacingTop=0;fillColor=#CCCCCC;strokeColor=none;arcSize=36;shadow=0;shadowOffsetX=2;shadowOffsetY=2;shadowBlur=1;strokeWidth=1;perimeterSpacing=0;html=1;whiteSpace=wrap;" parent="1" vertex="1">
          <mxGeometry x="230" y="516" width="40" height="10" as="geometry" />
        </mxCell>
        <mxCell id="SMRF5WXn3iM__mVZ10Ur-45" value="" style="text;align=center;verticalAlign=middle;rounded=1;spacing=4;spacingLeft=0;spacingTop=0;fillColor=#CCCCCC;strokeColor=none;arcSize=36;shadow=0;shadowOffsetX=2;shadowOffsetY=2;shadowBlur=1;strokeWidth=1;perimeterSpacing=0;html=1;whiteSpace=wrap;" parent="1" vertex="1">
          <mxGeometry x="310" y="516" width="50" height="10" as="geometry" />
        </mxCell>
        <mxCell id="SMRF5WXn3iM__mVZ10Ur-46" value="" style="text;align=center;verticalAlign=middle;rounded=1;spacing=4;spacingLeft=0;spacingTop=0;fillColor=#ADADAD;strokeColor=none;arcSize=36;shadow=0;shadowOffsetX=2;shadowOffsetY=2;shadowBlur=1;strokeWidth=1;perimeterSpacing=0;html=1;whiteSpace=wrap;" parent="1" vertex="1">
          <mxGeometry x="70" y="146" width="290" height="10" as="geometry" />
        </mxCell>
        <mxCell id="SMRF5WXn3iM__mVZ10Ur-47" value="" style="text;align=center;verticalAlign=middle;rounded=1;spacing=4;spacingLeft=0;spacingTop=0;fillColor=#CCCCCC;strokeColor=none;arcSize=36;shadow=0;shadowOffsetX=2;shadowOffsetY=2;shadowBlur=1;strokeWidth=1;perimeterSpacing=0;html=1;whiteSpace=wrap;" parent="1" vertex="1">
          <mxGeometry x="70" y="236" width="130" height="10" as="geometry" />
        </mxCell>
        <mxCell id="SMRF5WXn3iM__mVZ10Ur-48" value="Web document" style="text;align=center;verticalAlign=middle;rounded=1;spacing=4;spacingLeft=0;spacingTop=0;fillColor=none;strokeColor=none;arcSize=3;shadow=0;shadowOffsetX=2;shadowOffsetY=2;shadowBlur=1;strokeWidth=1;perimeterSpacing=0;html=1;whiteSpace=wrap;fontSize=14;" parent="1" vertex="1">
          <mxGeometry x="130" y="46" width="140" height="24" as="geometry" />
        </mxCell>
        <mxCell id="SMRF5WXn3iM__mVZ10Ur-51" value="" style="endArrow=none;startArrow=oval;rounded=0;exitX=1;exitY=0.5;exitDx=0;exitDy=0;startFill=1;edgeStyle=orthogonalEdgeStyle;endFill=0;entryX=0;entryY=0.5;entryDx=0;entryDy=0;html=1;verticalAlign=middle;" parent="1" source="oMBeN4IvPGKr6_LYo95F-5" target="SMRF5WXn3iM__mVZ10Ur-80" edge="1">
          <mxGeometry width="50" height="50" relative="1" as="geometry">
            <mxPoint x="650" y="526" as="sourcePoint" />
            <mxPoint x="559.9999999999984" y="309.8799999999999" as="targetPoint" />
            <Array as="points">
              <mxPoint x="590" y="211" />
              <mxPoint x="590" y="171" />
            </Array>
          </mxGeometry>
        </mxCell>
        <mxCell id="SMRF5WXn3iM__mVZ10Ur-53" value="" style="endArrow=none;startArrow=oval;rounded=0;startFill=1;entryX=0;entryY=0.5;entryDx=0;entryDy=0;edgeStyle=orthogonalEdgeStyle;endFill=0;html=1;verticalAlign=middle;" parent="1" target="SMRF5WXn3iM__mVZ10Ur-80" edge="1">
          <mxGeometry width="50" height="50" relative="1" as="geometry">
            <mxPoint x="310" y="171" as="sourcePoint" />
            <mxPoint x="574.1592040711596" y="249.42986636570504" as="targetPoint" />
          </mxGeometry>
        </mxCell>
        <mxCell id="SMRF5WXn3iM__mVZ10Ur-54" value="" style="endArrow=none;startArrow=oval;rounded=0;exitX=1;exitY=0.5;exitDx=0;exitDy=0;startFill=1;edgeStyle=orthogonalEdgeStyle;endFill=0;html=1;verticalAlign=middle;entryX=0;entryY=0.5;entryDx=0;entryDy=0;" parent="1" source="SMRF5WXn3iM__mVZ10Ur-7" target="SMRF5WXn3iM__mVZ10Ur-84" edge="1">
          <mxGeometry width="50" height="50" relative="1" as="geometry">
            <mxPoint x="360" y="436" as="sourcePoint" />
            <mxPoint x="570" y="426" as="targetPoint" />
            <Array as="points">
              <mxPoint x="530" y="436" />
              <mxPoint x="530" y="383" />
            </Array>
          </mxGeometry>
        </mxCell>
        <mxCell id="SMRF5WXn3iM__mVZ10Ur-55" value="" style="endArrow=none;startArrow=oval;rounded=0;exitX=1;exitY=0;exitDx=0;exitDy=0;startFill=1;edgeStyle=orthogonalEdgeStyle;endFill=0;entryX=0;entryY=0.5;entryDx=0;entryDy=0;html=1;verticalAlign=middle;" parent="1" source="SMRF5WXn3iM__mVZ10Ur-7" target="SMRF5WXn3iM__mVZ10Ur-84" edge="1">
          <mxGeometry width="50" height="50" relative="1" as="geometry">
            <mxPoint x="197" y="456" as="sourcePoint" />
            <mxPoint x="595" y="386" as="targetPoint" />
          </mxGeometry>
        </mxCell>
        <mxCell id="SMRF5WXn3iM__mVZ10Ur-56" value="&lt;font face=&quot;monospace&quot;&gt;GET /index.html&lt;/font&gt;" style="text;align=left;verticalAlign=top;rounded=1;spacing=4;spacingLeft=0;spacingTop=0;fillColor=none;strokeColor=none;arcSize=3;shadow=0;shadowOffsetX=2;shadowOffsetY=2;shadowBlur=1;strokeWidth=1;perimeterSpacing=0;html=1;whiteSpace=wrap;" parent="1" vertex="1">
          <mxGeometry x="400" y="106" width="120" height="30" as="geometry" />
        </mxCell>
        <mxCell id="SMRF5WXn3iM__mVZ10Ur-57" value="&lt;div&gt;&lt;font face=&quot;monospace&quot;&gt;GET styles.css&lt;/font&gt;&lt;/div&gt;" style="text;align=center;verticalAlign=middle;rounded=1;spacing=4;spacingLeft=0;spacingTop=0;fillColor=none;strokeColor=none;arcSize=3;shadow=0;shadowOffsetX=2;shadowOffsetY=2;shadowBlur=1;strokeWidth=1;perimeterSpacing=0;html=1;whiteSpace=wrap;labelPosition=center;verticalLabelPosition=middle;" parent="1" vertex="1">
          <mxGeometry x="400" y="146" width="110" height="20" as="geometry" />
        </mxCell>
        <mxCell id="SMRF5WXn3iM__mVZ10Ur-58" value="&lt;font face=&quot;monospace&quot;&gt;GET header.png&lt;/font&gt;" style="text;align=left;verticalAlign=top;rounded=1;spacing=4;spacingLeft=0;spacingTop=0;fillColor=none;strokeColor=none;arcSize=3;shadow=0;shadowOffsetX=2;shadowOffsetY=2;shadowBlur=1;strokeWidth=1;perimeterSpacing=0;html=1;whiteSpace=wrap;labelPosition=center;verticalLabelPosition=middle;textDirection=ltr;" parent="1" vertex="1">
          <mxGeometry x="400" y="186" width="110" height="30" as="geometry" />
        </mxCell>
        <mxCell id="SMRF5WXn3iM__mVZ10Ur-59" value="&lt;font face=&quot;monospace&quot;&gt;GET image.png&lt;/font&gt;" style="text;align=left;verticalAlign=top;rounded=1;spacing=4;spacingLeft=0;spacingTop=0;fillColor=none;strokeColor=none;arcSize=3;shadow=0;shadowOffsetX=2;shadowOffsetY=2;shadowBlur=1;strokeWidth=1;perimeterSpacing=0;html=1;whiteSpace=wrap;" parent="1" vertex="1">
          <mxGeometry x="400" y="354" width="100" height="32" as="geometry" />
        </mxCell>
        <mxCell id="SMRF5WXn3iM__mVZ10Ur-60" value="&lt;font face=&quot;monospace&quot;&gt;GET font.woff&lt;/font&gt;" style="text;align=left;verticalAlign=top;rounded=1;spacing=4;spacingLeft=0;spacingTop=0;fillColor=none;strokeColor=none;arcSize=3;shadow=0;shadowOffsetX=2;shadowOffsetY=2;shadowBlur=1;strokeWidth=1;perimeterSpacing=0;html=1;whiteSpace=wrap;" parent="1" vertex="1">
          <mxGeometry x="400" y="406" width="100" height="24" as="geometry" />
        </mxCell>
        <mxCell id="SMRF5WXn3iM__mVZ10Ur-80" value="Web server&lt;br&gt;&lt;font face=&quot;monospace&quot;&gt;domain-a.com&lt;/font&gt;" style="text;align=center;verticalAlign=middle;rounded=1;spacing=4;spacingLeft=0;spacingTop=0;fillColor=#bac8d3;strokeColor=#23445d;arcSize=3;shadow=0;shadowOffsetX=2;shadowOffsetY=2;shadowBlur=1;strokeWidth=1;perimeterSpacing=0;html=1;whiteSpace=wrap;" parent="1" vertex="1">
          <mxGeometry x="610" y="136" width="140" height="70" as="geometry" />
        </mxCell>
        <mxCell id="SMRF5WXn3iM__mVZ10Ur-82" value="" style="endArrow=none;startArrow=oval;rounded=0;startFill=1;entryX=0;entryY=0.5;entryDx=0;entryDy=0;endFill=0;edgeStyle=orthogonalEdgeStyle;exitX=0.944;exitY=0.087;exitDx=0;exitDy=0;exitPerimeter=0;html=1;verticalAlign=middle;" parent="1" source="SMRF5WXn3iM__mVZ10Ur-6" target="SMRF5WXn3iM__mVZ10Ur-80" edge="1">
          <mxGeometry width="50" height="50" relative="1" as="geometry">
            <mxPoint x="390" y="136" as="sourcePoint" />
            <mxPoint x="810" y="181" as="targetPoint" />
            <Array as="points">
              <mxPoint x="590" y="136" />
              <mxPoint x="590" y="171" />
            </Array>
          </mxGeometry>
        </mxCell>
        <mxCell id="SMRF5WXn3iM__mVZ10Ur-84" value="Web server&lt;br&gt;&lt;font face=&quot;monospace&quot;&gt;domain-b.com&lt;/font&gt;" style="text;align=center;verticalAlign=middle;rounded=1;spacing=4;spacingLeft=0;spacingTop=0;fillColor=#d0cee2;strokeColor=#56517e;arcSize=3;shadow=0;shadowOffsetX=2;shadowOffsetY=2;shadowBlur=1;strokeWidth=1;perimeterSpacing=0;html=1;whiteSpace=wrap;" parent="1" vertex="1">
          <mxGeometry x="610" y="348" width="140" height="70" as="geometry" />
        </mxCell>
        <mxCell id="vSXQ2q9NDauYmcELuNzs-4" style="edgeStyle=orthogonalEdgeStyle;rounded=0;orthogonalLoop=1;jettySize=auto;html=1;exitX=0.5;exitY=1;exitDx=0;exitDy=0;dashed=1;endArrow=none;endFill=0;entryX=1;entryY=0.5;entryDx=0;entryDy=0;strokeWidth=1;" edge="1" parent="1" source="vSXQ2q9NDauYmcELuNzs-1" target="SMRF5WXn3iM__mVZ10Ur-56">
          <mxGeometry relative="1" as="geometry" />
        </mxCell>
        <mxCell id="vSXQ2q9NDauYmcELuNzs-1" value="&lt;font face=&quot;sans-serif&quot; style=&quot;font-size: 15px;&quot;&gt;Main request: defines the origin&lt;/font&gt;" style="text;align=left;verticalAlign=top;rounded=1;spacing=4;spacingLeft=0;spacingTop=0;fillColor=none;strokeColor=none;arcSize=3;shadow=0;shadowOffsetX=2;shadowOffsetY=2;shadowBlur=1;strokeWidth=1;perimeterSpacing=0;html=1;whiteSpace=wrap;fontSize=15;" vertex="1" parent="1">
          <mxGeometry x="450" y="40" width="230" height="30" as="geometry" />
        </mxCell>
        <mxCell id="vSXQ2q9NDauYmcELuNzs-2" value="&lt;font face=&quot;monospace&quot;&gt;domain-a.com&lt;/font&gt;" style="text;align=center;verticalAlign=middle;rounded=1;spacing=4;spacingLeft=0;spacingTop=0;fillColor=none;strokeColor=none;arcSize=3;shadow=0;shadowOffsetX=2;shadowOffsetY=2;shadowBlur=1;strokeWidth=1;perimeterSpacing=0;html=1;whiteSpace=wrap;" vertex="1" parent="1">
          <mxGeometry x="130" y="70" width="140" height="24" as="geometry" />
        </mxCell>
        <mxCell id="vSXQ2q9NDauYmcELuNzs-7" style="edgeStyle=orthogonalEdgeStyle;rounded=0;orthogonalLoop=1;jettySize=auto;html=1;exitX=0.5;exitY=0;exitDx=0;exitDy=0;entryX=1;entryY=0.5;entryDx=0;entryDy=0;dashed=1;endArrow=none;endFill=0;strokeWidth=1;" edge="1" parent="1" source="vSXQ2q9NDauYmcELuNzs-5" target="SMRF5WXn3iM__mVZ10Ur-57">
          <mxGeometry relative="1" as="geometry" />
        </mxCell>
        <mxCell id="vSXQ2q9NDauYmcELuNzs-8" style="edgeStyle=orthogonalEdgeStyle;rounded=0;orthogonalLoop=1;jettySize=auto;html=1;exitX=0.5;exitY=0;exitDx=0;exitDy=0;entryX=1;entryY=0.5;entryDx=0;entryDy=0;dashed=1;endArrow=none;endFill=0;strokeWidth=1;" edge="1" parent="1" source="vSXQ2q9NDauYmcELuNzs-5" target="SMRF5WXn3iM__mVZ10Ur-58">
          <mxGeometry relative="1" as="geometry" />
        </mxCell>
        <mxCell id="vSXQ2q9NDauYmcELuNzs-5" value="&lt;font face=&quot;sans-serif&quot; style=&quot;font-size: 15px;&quot;&gt;Same-origin requests always allowed&lt;br style=&quot;font-size: 15px;&quot;&gt;&lt;/font&gt;" style="text;align=left;verticalAlign=top;rounded=1;spacing=4;spacingLeft=0;spacingTop=0;fillColor=none;strokeColor=none;arcSize=3;shadow=0;shadowOffsetX=2;shadowOffsetY=2;shadowBlur=1;strokeWidth=1;perimeterSpacing=0;html=1;whiteSpace=wrap;fontSize=15;" vertex="1" parent="1">
          <mxGeometry x="435" y="248" width="255" height="30" as="geometry" />
        </mxCell>
        <mxCell id="vSXQ2q9NDauYmcELuNzs-12" value="&lt;font face=&quot;sans-serif&quot; style=&quot;font-size: 15px;&quot;&gt;Cross-origin requests controlled by CORS&lt;br style=&quot;font-size: 15px;&quot;&gt;&lt;/font&gt;" style="text;align=left;verticalAlign=top;rounded=1;spacing=4;spacingLeft=0;spacingTop=0;fillColor=none;strokeColor=none;arcSize=3;shadow=0;shadowOffsetX=2;shadowOffsetY=2;shadowBlur=1;strokeWidth=1;perimeterSpacing=0;html=1;whiteSpace=wrap;fontSize=15;" vertex="1" parent="1">
          <mxGeometry x="416.25" y="466" width="303.75" height="30" as="geometry" />
        </mxCell>
        <mxCell id="vSXQ2q9NDauYmcELuNzs-13" style="edgeStyle=orthogonalEdgeStyle;rounded=0;orthogonalLoop=1;jettySize=auto;html=1;entryX=1;entryY=0.5;entryDx=0;entryDy=0;dashed=1;endArrow=none;endFill=0;strokeWidth=1;" edge="1" parent="1" source="vSXQ2q9NDauYmcELuNzs-12" target="SMRF5WXn3iM__mVZ10Ur-60">
          <mxGeometry relative="1" as="geometry">
            <mxPoint x="540" y="486" as="sourcePoint" />
            <mxPoint x="510" y="439" as="targetPoint" />
          </mxGeometry>
        </mxCell>
        <mxCell id="vSXQ2q9NDauYmcELuNzs-15" style="edgeStyle=orthogonalEdgeStyle;rounded=0;orthogonalLoop=1;jettySize=auto;html=1;entryX=1;entryY=0.5;entryDx=0;entryDy=0;dashed=1;endArrow=none;endFill=0;exitX=0.5;exitY=0;exitDx=0;exitDy=0;strokeWidth=1;" edge="1" parent="1" source="vSXQ2q9NDauYmcELuNzs-12" target="SMRF5WXn3iM__mVZ10Ur-59">
          <mxGeometry relative="1" as="geometry">
            <mxPoint x="546" y="476" as="sourcePoint" />
            <mxPoint x="510" y="428" as="targetPoint" />
          </mxGeometry>
        </mxCell>
      </root>
    </mxGraphModel>
  </diagram>
</mxfile>
